<svg width="110" height="110" viewBox="0 0 110 110" fill="none" xmlns="http://www.w3.org/2000/svg">
<line x1="59.9485" y1="1" x2="59.9485" y2="14.1088" stroke="white" stroke-width="5"/>
<path fill-rule="evenodd" clip-rule="evenodd" d="M66 71H29.5V66H66V71ZM74.5 80.5H5V75.5H74.5V80.5ZM91.5 90.7222H20V85.7222H91.5V90.7222ZM83 103.5H44.5V98.5H83V103.5Z" fill="white"/>
<line x1="60.4482" y1="1" x2="60.4482" y2="14.1088" stroke="white" stroke-width="5"/>
<line x1="105.8" y1="25.4502" x2="94.4472" y2="32.0046" stroke="white" stroke-width="5"/>
<line x1="17.25" y1="27.6743" x2="28.6026" y2="34.2287" stroke="white" stroke-width="5"/>
<line x1="94.4473" y1="72.2441" x2="105.8" y2="78.7985" stroke="white" stroke-width="5"/>
<path fill-rule="evenodd" clip-rule="evenodd" d="M39.9124 40.3248L59.9569 28.752L80.0015 40.3248V63.4703L71.4999 68.3787V70.5H77.8257L85.0015 66.357V37.438L59.9569 22.9785L34.9124 37.438V61H39.9124V40.3248Z" fill="white"/>
</svg>
