<svg width="60" height="60" viewBox="0 0 60 60" fill="none" xmlns="http://www.w3.org/2000/svg">
<path d="M41.34 60V36.78H49.1167L50.28 27.7533H41.34V21.9933C41.34 19.38 42.0667 17.5967 45.8133 17.5967H50.5933V9.52333C48.2793 9.27781 45.9536 9.15875 43.6267 9.16667C36.7367 9.16667 32.02 13.3733 32.02 21.1V27.7533H24.2267V36.78H32.02V60H3.33333C2.44928 60 1.60143 59.6488 0.976311 59.0237C0.351189 58.3986 0 57.5507 0 56.6667V3.33333C0 2.44928 0.351189 1.60143 0.976311 0.976311C1.60143 0.351189 2.44928 0 3.33333 0H56.6667C57.5507 0 58.3986 0.351189 59.0237 0.976311C59.6488 1.60143 60 2.44928 60 3.33333V56.6667C60 57.5507 59.6488 58.3986 59.0237 59.0237C58.3986 59.6488 57.5507 60 56.6667 60H41.34Z" fill="white"/>
</svg>
