<svg width="60" height="60" viewBox="0 0 60 60" fill="none" xmlns="http://www.w3.org/2000/svg">
<path d="M53.5714 0H6.42857C2.87946 0 0 2.87946 0 6.42857V53.5714C0 57.1205 2.87946 60 6.42857 60H53.5714C57.1205 60 60 57.1205 60 53.5714V6.42857C60 2.87946 57.1205 0 53.5714 0ZM47.0223 21.2679C47.0491 21.6429 47.0491 22.0312 47.0491 22.4062C47.0491 34.0179 38.2098 47.3973 22.058 47.3973C17.0759 47.3973 12.4554 45.9509 8.57143 43.4598C9.28125 43.5402 9.96429 43.567 10.6875 43.567C14.7991 43.567 18.5759 42.1741 21.5893 39.817C17.7321 39.7366 14.4911 37.2054 13.3795 33.7232C14.7321 33.9241 15.9509 33.9241 17.3437 33.5625C13.3259 32.7455 10.3125 29.2098 10.3125 24.9375V24.8304C11.4777 25.4866 12.8437 25.8884 14.2768 25.942C13.072 25.1406 12.0844 24.0534 11.402 22.7774C10.7196 21.5015 10.3637 20.0764 10.3661 18.6295C10.3661 16.9955 10.7946 15.4955 11.558 14.1964C15.8839 19.5268 22.3795 23.0089 29.6652 23.3839C28.4196 17.4241 32.8795 12.5893 38.2366 12.5893C40.7679 12.5893 43.0446 13.6473 44.6518 15.3616C46.6339 14.9866 48.5357 14.25 50.2232 13.2455C49.567 15.2812 48.1875 16.9955 46.3661 18.0804C48.1339 17.8929 49.8482 17.3973 51.4286 16.7143C50.2366 18.4687 48.7366 20.0223 47.0223 21.2679Z" fill="white"/>
</svg>
