<svg width="75" height="60" viewBox="0 0 75 60" fill="none" xmlns="http://www.w3.org/2000/svg">
<path d="M73.2863 9.3675C75 16.05 75 30 75 30C75 30 75 43.95 73.2863 50.6325C72.3338 54.3263 69.5475 57.2325 66.0188 58.215C59.61 60 37.5 60 37.5 60C37.5 60 15.4013 60 8.98125 58.215C5.4375 57.2175 2.655 54.315 1.71375 50.6325C1.11759e-07 43.95 0 30 0 30C0 30 1.11759e-07 16.05 1.71375 9.3675C2.66625 5.67375 5.4525 2.7675 8.98125 1.785C15.4013 -6.70552e-07 37.5 0 37.5 0C37.5 0 59.61 -6.70552e-07 66.0188 1.785C69.5625 2.7825 72.345 5.685 73.2863 9.3675ZM30 43.125L52.5 30L30 16.875V43.125Z" fill="white"/>
</svg>
